<?xml version="1.0" standalone="no"?><!DOCTYPE svg PUBLIC "-//W3C//DTD SVG 1.1//EN" "http://www.w3.org/Graphics/SVG/1.1/DTD/svg11.dtd"><svg class="icon" height="512" viewBox="0 0 1024 1024" version="1.1" xmlns="http://www.w3.org/2000/svg"><path d="M960 544a32 32 0 0 1-32-32A416 416 0 0 0 512 96a32 32 0 0 1 0-64 480 480 0 0 1 480 480 32 32 0 0 1-32 32z m-368-224c21.12 1.92 38.72 14.4 131.84 121.28a56.96 56.96 0 0 1 0 69.76C697.28 544 544 718.72 544 718.72a39.68 39.68 0 0 1-65.92 0L298.88 512a55.36 55.36 0 0 1 0-68.8C401.28 320 390.4 320 437.44 320h154.24z m-26.88 64h3.52-109.76c-33.6 0-25.92 0-97.92 74.88a32 32 0 0 0 0 42.24l128 128a32 32 0 0 0 47.04 0l128-128a32 32 0 0 0 0-42.88c-67.2-66.56-79.36-73.28-96-74.56h-3.2z m26.88-64z m-288-168.64A416 416 0 0 0 152 720a32 32 0 1 1-56 32A480 480 0 0 1 272.32 96a32 32 0 0 1 32 55.68z m0 720a416 416 0 0 0 568.32-152.32 32 32 0 0 1 55.36 32A480 480 0 0 1 272 928a32 32 0 0 1 32-56z" /></svg>