<?xml version="1.0" standalone="no"?><!DOCTYPE svg PUBLIC "-//W3C//DTD SVG 1.1//EN" "http://www.w3.org/Graphics/SVG/1.1/DTD/svg11.dtd"><svg class="icon" height="512" viewBox="0 0 1029 1024" version="1.1" xmlns="http://www.w3.org/2000/svg"><path d="M1012.464057 401.64411c-2.566416-14.115288-16.681704-23.097744-30.796993-19.24812-14.115288 2.566416-23.097744 16.681704-19.24812 30.796992 6.41604 32.080201 10.265664 65.443609 10.265664 97.52381 0 254.075188-206.596491 460.671679-460.671679 460.671679S51.34125 764.79198 51.34125 510.716792c0-254.075188 206.596491-460.671679 460.671679-460.671679 25.66416 0 51.328321 2.566416 75.709273 6.41604 14.115288 2.566416 26.947368-7.699248 29.513785-20.531328 2.566416-14.115288-7.699248-26.947368-20.531329-29.513785-28.230576-5.132832-56.461153-6.41604-84.691729-6.41604C229.707165 0 0.012929 229.694236 0.012929 512s229.694236 512 512 512 512-229.694236 512-512c0-38.496241-3.849624-74.426065-11.548872-110.35589z" fill="" /><path d="M512.012929 282.305764c12.83208 0 25.66416 1.283208 37.213033 2.566416 14.115288 2.566416 26.947368-7.699248 29.513784-20.531328s-7.699248-26.947368-20.531328-29.513784c-15.398496-2.566416-30.796992-3.849624-46.195489-3.849624-153.984962 0-279.739348 125.754386-279.739348 279.739348s125.754386 279.739348 279.739348 279.739348 279.739348-125.754386 279.739348-279.739348c0-20.531328-2.566416-39.779449-6.41604-59.027569-2.566416-14.115288-16.681704-23.097744-30.796992-19.24812-14.115288 2.566416-23.097744 16.681704-19.24812 30.796992 3.849624 15.398496 5.132832 32.080201 5.132832 48.761905 0 125.754386-102.656642 228.411028-228.411028 228.411028s-228.411028-102.656642-228.411028-228.411028c0-127.037594 102.656642-229.694236 228.411028-229.694236z" fill="" /><path d="M513.296137 464.521303c-2.566416 0-5.132832-1.283208-7.699248-1.283208-24.380952 0-44.912281 20.531328-44.912281 44.912281s20.531328 44.912281 44.912281 44.912281 44.912281-20.531328 44.912281-44.912281c0-2.566416 0-5.132832-1.283208-8.982456l129.60401-133.453634 123.18797-6.41604c6.41604 0 12.83208-2.566416 16.681704-7.699249L984.23348 180.932331c7.699248-7.699248 8.982456-19.24812 5.132833-29.513785s-15.398496-15.398496-25.664161-14.115288l-111.639098 12.83208 8.982457-110.355889c1.283208-10.265664-5.132832-20.531328-15.398497-25.664161-10.265664-5.132832-21.814536-2.566416-29.513784 5.132832L651.882603 189.914787c-5.132832 5.132832-7.699248 10.265664-7.699248 17.964912l-2.566416 124.471178-128.320802 132.170426zM695.511676 218.145363l109.072682-111.639097-6.41604 71.859649c0 7.699248 2.566416 15.398496 7.699248 20.531328 5.132832 5.132832 12.83208 7.699248 20.531328 7.699248l71.859649-7.699248-109.072682 111.639098-96.240601 5.132832 2.566416-97.52381z" fill="" /></svg>